<?xml version="1.0"?>
<svg width="223.53" height="188.67" xmlns="http://www.w3.org/2000/svg" xmlns:svg="http://www.w3.org/2000/svg">
 <defs>
  <style>.cls-1{fill:#232122;}.cls-1,.cls-2,.cls-4{fill-rule:evenodd;}.cls-2{fill:#facc15;}.cls-3{fill:#faecdc;}</style>
 </defs>
 <g class="layer">
  <title>Layer 1</title>
  <path class="cls-1" d="m41.52,148.07l-9.36,0a12,12 0 0 1 -0.25,-1.66c0,-2.23 0,-4.46 0.21,-6.68a65.91,65.91 0 0 0 -0.75,-15.73a12.87,12.87 0 0 0 -3,-6.81c-2.47,-2.74 -3.84,-2.66 -5.17,0.83a40.33,40.33 0 0 0 -2.2,8.56a77.3,77.3 0 0 0 -0.7,10.42c-0.08,15.07 -0.14,30.14 0,45.21a82.55,82.55 0 0 0 1.19,11.27a14.78,14.78 0 0 0 3.28,7.45a10.43,10.43 0 0 0 1.72,1.73c2.78,2.07 5.82,1.17 6.82,-2.17a28.64,28.64 0 0 0 1.21,-6.49c0.23,-4.14 0.14,-8.3 0.19,-12.45c0,-1.11 0,-2.22 0,-3.63c3.27,-0.39 6.49,-0.16 9.77,-0.28a6.23,6.23 0 0 1 0.31,1.17c0.27,6.83 0.53,13.67 -0.75,20.43a24.84,24.84 0 0 1 -2.38,7.35c-4.26,7.75 -13.68,9.69 -20.88,4.49a22.56,22.56 0 0 1 -8.06,-11.21a49,49 0 0 1 -2.58,-15.76q-0.17,-25.38 0.09,-50.77a51.08,51.08 0 0 1 2.5,-16.45a28.71,28.71 0 0 1 2.81,-6c4.25,-6.63 12,-7.69 18.07,-2.63a22.65,22.65 0 0 1 7.73,13.9c1.43,7.89 1,15.82 0.67,23.76a10,10 0 0 1 -0.23,1.54a4.46,4.46 0 0 1 -0.26,0.61z" id="svg_1" transform="translate(-8.04 -25.29)"/>
  <path class="cls-1" d="m139.44,211.73c-0.09,-3 -0.23,-5.63 -0.25,-8.28c-0.11,-13.88 -0.17,-27.76 -0.29,-41.63c-0.09,-9.2 -0.39,-18.4 -0.31,-27.59a114.44,114.44 0 0 1 1.17,-13.95a19.86,19.86 0 0 1 4.51,-10.28c4.15,-4.92 9.81,-5.9 15.38,-2.71a15.46,15.46 0 0 1 6.36,6.93a38.11,38.11 0 0 1 3.15,11.31a130,130 0 0 1 0.88,20.21a7.83,7.83 0 0 1 -0.33,1.5l-9.58,0a21.73,21.73 0 0 1 -0.23,-2.19c-0.05,-3.49 0,-7 -0.12,-10.46c-0.21,-5.12 -0.61,-10.22 -2.48,-15.07a6.73,6.73 0 0 0 -2.65,-3.47a1.73,1.73 0 0 0 -2.54,0.38a11,11 0 0 0 -2.41,5.66a61.5,61.5 0 0 0 -0.89,9.07c0,12.16 0.21,24.33 0.34,36.5a8.34,8.34 0 0 0 0.12,0.86c4.82,0.2 9.63,-0.88 14.68,-0.7l0,9.89l-14.64,1.2c-0.06,0.63 -0.17,1.2 -0.17,1.77q0,11 0.1,22c0,2.29 0.23,4.59 0.13,6.88c-0.09,2 -0.27,2.09 -2.28,2.1c-2.45,0.09 -4.89,0.07 -7.65,0.07z" id="svg_2" transform="translate(-8.04 -25.29)"/>
  <path class="cls-1" d="m113.6,169.69c5.25,-0.18 10.23,-0.95 15.38,-0.9l0,9.89l-15.22,1.26c-0.06,0.83 -0.16,1.48 -0.15,2.12c0.09,8.32 0.21,16.62 0.3,24.94c0,1.53 -0.07,3.06 -0.12,4.69l-9.79,0c-0.07,-0.83 -0.19,-1.62 -0.19,-2.41c-0.1,-9.57 -0.16,-19.14 -0.28,-28.72c-0.15,-11.87 -0.45,-23.74 -0.48,-35.61c0,-6.75 0.29,-13.5 0.65,-20.24a25.58,25.58 0 0 1 2.59,-9.84a15.9,15.9 0 0 1 5.34,-6.43a10.74,10.74 0 0 1 11,-0.91a15.46,15.46 0 0 1 7.82,7.59a38.36,38.36 0 0 1 3.1,10.64c1.13,7.07 1,14.2 0.93,21.33a15.89,15.89 0 0 1 -0.26,1.94c-3.08,0.65 -6.2,0.21 -9.53,0.69c-0.09,-1 -0.21,-1.75 -0.23,-2.52c-0.09,-3.94 0,-7.88 -0.25,-11.8s-0.81,-7.66 -1.38,-11.46a20.16,20.16 0 0 0 -1.32,-4a6.06,6.06 0 0 0 -1,-1.71c-1.91,-2.24 -3.32,-2.08 -4.78,0.51s-1.82,5.47 -2.1,8.36c-0.81,8.59 -0.51,17.19 -0.27,25.8c0.13,4.75 0.18,9.5 0.27,14.25c-0.02,0.79 -0.03,1.59 -0.03,2.54z" id="svg_3" transform="translate(-8.04 -25.29)"/>
  <path class="cls-1" d="m186.27,201.86c4.41,0.36 8.75,-0.58 13.14,-0.2c0,3.11 0,6 0,8.86c0,0.38 -0.68,0.82 -1.13,1.09a2.28,2.28 0 0 1 -1.09,0.09q-10.12,0.21 -20.25,0.4a7.13,7.13 0 0 1 -0.94,-0.1c-0.06,-1 -0.19,-2.1 -0.19,-3.18q0.22,-25.15 0.48,-50.31c0.13,-14.39 0.25,-28.79 0.44,-43.18a48.52,48.52 0 0 1 0.62,-5.06a1.83,1.83 0 0 1 2.05,-1.82c2.82,-0.08 5.64,-0.26 8.45,-0.34q5.79,-0.16 11.58,-0.27c0.57,0 1.15,0.1 1.91,0.17c0.13,3.11 0.26,6.11 0.4,9.32a39,39 0 0 1 -7.4,0.42c-2.37,0 -4.74,0 -7.36,0c-0.08,1 -0.19,1.77 -0.2,2.55c-0.08,9.2 -0.13,18.4 -0.23,27.61c-0.06,6.3 -0.18,12.61 -0.27,18.92c0,0.79 0,1.59 0,2.67l13.25,-0.53c0.29,3.3 0.55,6.3 0.83,9.62l-14.06,0.86l-0.03,22.41z" id="svg_4" transform="translate(-8.04 -25.29)"/>
  <path class="cls-1" d="m206.07,211.91c0,-1 -0.13,-2 -0.12,-2.95q0.35,-39 0.7,-77.93q0.07,-8.34 0.29,-16.69a21.11,21.11 0 0 1 0.55,-4c0.4,-1.81 0.45,-1.9 2.36,-2c5.34,-0.23 10.68,-0.38 16,-0.53c1.83,-0.06 3.66,0 5.7,0l0,9.6c-4.67,0.39 -9.47,0.18 -14.2,0.4c-0.49,1.65 -1.12,47.83 -0.71,51.36a9.06,9.06 0 0 0 1.41,0.17c2.82,-0.12 5.63,-0.3 8.45,-0.4c1,0 2,0.07 3.19,0.12c0.27,3.21 0.51,6.21 0.78,9.46c-4.75,0.27 -9.23,0.54 -14,0.83c-0.14,7.48 -0.27,14.91 -0.4,22.41c4.72,0.45 9.13,-0.58 13.58,-0.14c0,3.06 0,5.86 0,8.66a1.23,1.23 0 0 1 -1.24,1.31l-0.89,0l-20.47,0.4a6.78,6.78 0 0 1 -0.98,-0.08z" id="svg_5" transform="translate(-8.04 -25.29)"/>
  <path class="cls-1" d="m69.3,136.58a25.95,25.95 0 1 1 -26,25.79a26,26 0 0 1 26,-25.79zm15.7,25.89a15.8,15.8 0 1 0 -15.8,15.85a15.75,15.75 0 0 0 15.8,-15.85z" id="svg_6" transform="translate(-8.04 -25.29)"/>
  <path class="cls-1" d="m92.84,204.12c-4.43,0.78 -39.13,0.72 -41.2,0l0,-9.34c13.76,-0.19 27.35,-0.51 41.24,-0.41c0.12,3.37 0.06,6.51 -0.04,9.75z" id="svg_7" transform="translate(-8.04 -25.29)"/>
  <path class="cls-2" d="m28,212.67a15.11,15.11 0 0 1 -8.85,-2.95a22.85,22.85 0 0 1 -8.15,-11.34a49.28,49.28 0 0 1 -2.6,-15.83c-0.1,-16.33 -0.07,-33.42 0.09,-50.78a50.39,50.39 0 0 1 2.51,-16.52a28.84,28.84 0 0 1 2.83,-6.08a12.07,12.07 0 0 1 10.12,-5.92a13,13 0 0 1 8.33,3.23a22.83,22.83 0 0 1 7.81,14c1.44,7.95 1.05,16 0.67,23.82a9.13,9.13 0 0 1 -0.2,1.39l0,0.18a2.15,2.15 0 0 1 -0.18,0.48l-0.16,0.39l-9.81,0l0,-0.21c0,-0.24 -0.08,-0.44 -0.12,-0.64a5.28,5.28 0 0 1 -0.13,-1.07l0,-1.31c0,-1.77 0.05,-3.59 0.19,-5.38a66.15,66.15 0 0 0 -0.75,-15.69a12.54,12.54 0 0 0 -3,-6.69c-1.14,-1.26 -2,-1.85 -2.65,-1.85s-1.43,0.83 -2.11,2.6a40.09,40.09 0 0 0 -2.17,8.53a77.08,77.08 0 0 0 -0.67,10.4c-0.08,13.63 -0.15,29.48 0,45.2a74.92,74.92 0 0 0 1,10.26l0.15,1a14.51,14.51 0 0 0 3.22,7.32a10.32,10.32 0 0 0 1.68,1.69a4.87,4.87 0 0 0 2.87,1.1c1.67,0 3,-1.16 3.59,-3.1a27.47,27.47 0 0 0 1.22,-6.47c0.17,-3 0.17,-6 0.17,-8.9c0,-1.18 0,-2.36 0,-3.54c0,-0.75 0,-1.49 0,-2.33l0,-1.52l0.22,0a47.08,47.08 0 0 1 5.42,-0.24l1.8,0c0.86,0 1.71,0 2.57,0l0.2,0l0,0.19c0,0.16 0.09,0.31 0.14,0.44a2.92,2.92 0 0 1 0.18,0.78c0.27,6.74 0.54,13.7 -0.75,20.49a25.64,25.64 0 0 1 -2.41,7.43a14.06,14.06 0 0 1 -12.27,7.44z" id="svg_8" transform="translate(-8.04 -25.29)"/>
  <path class="cls-3" d="m23.91,103.5a12.71,12.71 0 0 1 8.17,3.18a22.67,22.67 0 0 1 7.73,13.9c1.43,7.88 1,15.82 0.67,23.76a12,12 0 0 1 -0.24,1.54a3.87,3.87 0 0 1 -0.26,0.66l-9.36,0a11.91,11.91 0 0 1 -0.24,-1.67c0,-2.22 0,-4.46 0.21,-6.68a66.35,66.35 0 0 0 -0.75,-15.74a13,13 0 0 0 -3,-6.82c-1.15,-1.27 -2.06,-1.93 -2.84,-1.93s-1.63,0.89 -2.34,2.77a39.58,39.58 0 0 0 -2.18,8.58a77.3,77.3 0 0 0 -0.68,10.43c-0.09,15.06 -0.15,30.13 0,45.2a82.36,82.36 0 0 0 1.12,11.32a14.78,14.78 0 0 0 3.28,7.45a10.43,10.43 0 0 0 1.72,1.73a5.08,5.08 0 0 0 3,1.11c1.71,0 3.19,-1.14 3.83,-3.27a28.7,28.7 0 0 0 1.25,-6.59c0.23,-4.14 0.15,-8.3 0.19,-12.45c0,-1.11 0,-2.21 0,-3.63a46.49,46.49 0 0 1 5.39,-0.24l1.81,0c0.86,0 1.71,0 2.57,0a6,6 0 0 1 0.31,1.16c0.27,6.83 0.54,13.68 -0.74,20.43a25.19,25.19 0 0 1 -2.4,7.3a13.82,13.82 0 0 1 -12.13,7.42a14.78,14.78 0 0 1 -8.7,-2.91a22.39,22.39 0 0 1 -8.06,-11.21a48.92,48.92 0 0 1 -2.64,-15.75q-0.15,-25.4 0.09,-50.78a51.07,51.07 0 0 1 2.5,-16.44a29.31,29.31 0 0 1 2.81,-6a11.76,11.76 0 0 1 9.91,-5.8m0,-0.5l0,0a12.3,12.3 0 0 0 -10.33,6a29.55,29.55 0 0 0 -2.86,6.13a51,51 0 0 0 -2.53,16.61c-0.19,17.36 -0.19,34.45 -0.09,50.78a49.73,49.73 0 0 0 2.61,15.91a23.08,23.08 0 0 0 8.29,11.46a15.29,15.29 0 0 0 9,3a14.3,14.3 0 0 0 12.61,-7.65a25.7,25.7 0 0 0 2.39,-7.51c1.29,-6.81 1,-13.79 0.75,-20.54a3.25,3.25 0 0 0 -0.19,-0.85a3.62,3.62 0 0 1 -0.14,-0.43l-0.1,-0.37l-0.4,0c-0.9,0 -1.79,0 -2.55,0l-1.81,0a47.59,47.59 0 0 0 -5.45,0.24l-0.44,0.06l0,1.74c0,0.84 0,1.58 0,2.33c0,1.17 0,2.35 0,3.53c0,2.92 0,5.94 -0.17,8.9a27.48,27.48 0 0 1 -1.21,6.41c-0.55,1.83 -1.8,2.92 -3.35,2.92a4.61,4.61 0 0 1 -2.7,-1a9.45,9.45 0 0 1 -1.63,-1.65a14.23,14.23 0 0 1 -3.18,-7.2l-0.14,-1a74.8,74.8 0 0 1 -1,-10.23c-0.12,-15.71 0,-31.57 0,-45.2a76.34,76.34 0 0 1 0.67,-10.36a39.63,39.63 0 0 1 2.16,-8.48c0.62,-1.64 1.24,-2.44 1.87,-2.44s1.39,0.58 2.47,1.77a12.31,12.31 0 0 1 2.9,6.56a65.65,65.65 0 0 1 0.75,15.63c-0.14,1.8 -0.17,3.63 -0.19,5.4l0,1.3a5.13,5.13 0 0 0 0.08,1.2c0,0.19 0.07,0.39 0.11,0.62l0.06,0.43l10.15,0l0.12,-0.32c0,-0.07 0.07,-0.15 0.1,-0.21a2.3,2.3 0 0 0 0.19,-0.54l0,-0.18a9.47,9.47 0 0 0 0.2,-1.43c0.38,-7.81 0.77,-15.9 -0.67,-23.87a23.07,23.07 0 0 0 -7.9,-14.2a13.23,13.23 0 0 0 -8.45,-3.3l0,0.03z" id="svg_9" transform="translate(-8.04 -25.29)"/>
  <path class="cls-2" d="m137.67,210.44l0,-0.24c0,-1 -0.07,-1.91 -0.1,-2.82c-0.07,-1.89 -0.14,-3.68 -0.16,-5.47q-0.08,-9.28 -0.12,-18.58q-0.08,-11.52 -0.17,-23c0,-3.38 -0.09,-6.76 -0.15,-10.14c-0.1,-5.72 -0.21,-11.64 -0.16,-17.46a115.14,115.14 0 0 1 1.18,-14a19.9,19.9 0 0 1 4.57,-10.39a11.9,11.9 0 0 1 9.16,-4.64a13.1,13.1 0 0 1 6.52,1.87a15.6,15.6 0 0 1 6.47,7a38.19,38.19 0 0 1 3.17,11.43a133.34,133.34 0 0 1 0.88,20.25a3.93,3.93 0 0 1 -0.18,1c-0.05,0.18 -0.11,0.37 -0.16,0.59l0,0.2l-10,0l0,-0.22c0,-0.2 0,-0.4 -0.07,-0.61a13.54,13.54 0 0 1 -0.15,-1.61c0,-1.3 0,-2.59 0,-3.89c0,-2.15 0,-4.38 -0.09,-6.57c-0.21,-4.87 -0.56,-10 -2.47,-15a6.49,6.49 0 0 0 -2.55,-3.35a2,2 0 0 0 -1,-0.35a1.62,1.62 0 0 0 -1.2,0.68a10.81,10.81 0 0 0 -2.36,5.54l0,0.38a59.62,59.62 0 0 0 -0.84,8.65c0,9 0.12,18.16 0.23,27q0.06,4.74 0.11,9.48a2.9,2.9 0 0 0 0.06,0.43c0,0.05 0,0.12 0,0.19l1,0c2,0 4,-0.19 6,-0.37s4.14,-0.38 6.27,-0.38l1.19,0l0.24,0l0,10.37l-14.79,1.21c0,0.14 0,0.28 -0.05,0.41a9.1,9.1 0 0 0 -0.1,1.13c0,7.35 0.05,14.69 0.1,22c0,0.88 0,1.76 0.08,2.64c0.06,1.39 0.11,2.84 0.05,4.25c-0.1,2.18 -0.41,2.33 -2.53,2.35l-7.88,0l0,0.04z" id="svg_10" transform="translate(-8.04 -25.29)"/>
  <path class="cls-3" d="m151.71,103.93a12.88,12.88 0 0 1 6.4,1.84a15.45,15.45 0 0 1 6.37,6.94a38.65,38.65 0 0 1 3.15,11.3a132.6,132.6 0 0 1 0.88,20.22a9.1,9.1 0 0 1 -0.33,1.5l-9.59,0c-0.07,-0.65 -0.21,-1.42 -0.22,-2.2c-0.06,-3.48 0,-7 -0.12,-10.46c-0.22,-5.11 -0.62,-10.22 -2.49,-15.07a6.67,6.67 0 0 0 -2.65,-3.47a2.16,2.16 0 0 0 -1.14,-0.39a1.83,1.83 0 0 0 -1.39,0.77a11,11 0 0 0 -2.41,5.67a62.91,62.91 0 0 0 -0.9,9.06c0,12.17 0.21,24.34 0.34,36.5a7.66,7.66 0 0 0 0.12,0.86c0.42,0 0.83,0 1.25,0c4,0 8.07,-0.75 12.26,-0.75l1.18,0l0,9.9l-14.64,1.19a17.13,17.13 0 0 0 -0.18,1.77q0,11 0.1,22c0,2.3 0.23,4.6 0.13,6.88c-0.09,2 -0.27,2.09 -2.28,2.11l-7.64,0c-0.1,-3 -0.24,-5.63 -0.26,-8.28c-0.11,-13.87 -0.17,-27.75 -0.29,-41.63c-0.08,-9.19 -0.39,-18.39 -0.31,-27.59a114.79,114.79 0 0 1 1.18,-14a19.77,19.77 0 0 1 4.51,-10.26a11.66,11.66 0 0 1 9,-4.55m0,-0.5a12.13,12.13 0 0 0 -9.35,4.73a20.2,20.2 0 0 0 -4.63,10.52a117.53,117.53 0 0 0 -1.18,14c-0.05,5.83 0.06,11.75 0.16,17.48c0.06,3.32 0.12,6.75 0.15,10.12q0.1,11.49 0.17,23q0,9.33 0.12,18.65c0,1.8 0.09,3.59 0.16,5.49c0,0.91 0.07,1.84 0.1,2.81l0,0.48l8.13,0c2.23,0 2.68,-0.23 2.78,-2.58c0.06,-1.43 0,-2.88 -0.05,-4.28c0,-0.87 -0.07,-1.76 -0.08,-2.63c0,-7.45 -0.08,-15 -0.1,-22a8.81,8.81 0 0 1 0.1,-1.1l0,-0.2l5.75,-0.47l8.48,-0.69l0.46,0l0,-10.8l-0.48,0l-1.2,0c-2.14,0 -4.25,0.19 -6.3,0.38s-4,0.37 -6,0.37l-0.82,0a2.38,2.38 0 0 1 0,-0.37q0,-4.72 -0.11,-9.45c-0.11,-8.87 -0.22,-18 -0.23,-27.05a59.48,59.48 0 0 1 0.84,-8.63l0,-0.36a10.47,10.47 0 0 1 2.3,-5.41c0.45,-0.54 0.79,-0.6 1,-0.6a1.73,1.73 0 0 1 0.88,0.32a6.19,6.19 0 0 1 2.45,3.22c1.89,4.91 2.24,10.06 2.45,14.91c0.09,2.19 0.09,4.41 0.09,6.57c0,1.29 0,2.59 0,3.88a13.67,13.67 0 0 0 0.15,1.64c0,0.21 0,0.41 0.08,0.6l0,0.45l10.44,0l0.08,-0.39c0.05,-0.22 0.11,-0.41 0.16,-0.59a3.81,3.81 0 0 0 0.19,-1a132.67,132.67 0 0 0 -0.89,-20.29a38.37,38.37 0 0 0 -3.19,-11.45a16.06,16.06 0 0 0 -6.57,-7.15a13.31,13.31 0 0 0 -6.65,-1.91l0.16,-0.22z" id="svg_11" transform="translate(-8.04 -25.29)"/>
  <path class="cls-2" d="m102.22,210.41l0,-0.23c0,-0.27 0,-0.54 -0.07,-0.8c-0.06,-0.56 -0.11,-1.09 -0.12,-1.63q-0.06,-5.72 -0.1,-11.44q-0.07,-8.64 -0.17,-17.28q-0.09,-6.41 -0.2,-12.82c-0.13,-7.47 -0.27,-15.2 -0.28,-22.8c0,-6.43 0.25,-12.74 0.64,-20.25a26,26 0 0 1 2.62,-9.94a16,16 0 0 1 5.46,-6.52a11.18,11.18 0 0 1 6.32,-2.06a12.07,12.07 0 0 1 4.92,1.12a15.83,15.83 0 0 1 7.94,7.72a38,38 0 0 1 3.12,10.7c1,6.39 1,12.93 0.95,19.24l0,2.13a7.31,7.31 0 0 1 -0.15,1.25c0,0.22 -0.08,0.46 -0.11,0.73l0,0.17l-0.17,0a26.56,26.56 0 0 1 -5.14,0.42a35.25,35.25 0 0 0 -4.41,0.27l-0.26,0l0,-0.26c0,-0.33 -0.07,-0.63 -0.1,-0.91c-0.07,-0.6 -0.12,-1.11 -0.14,-1.63c0,-1.32 0,-2.64 0,-3.95c0,-2.58 0,-5.24 -0.21,-7.84c-0.26,-3.88 -0.82,-7.78 -1.37,-11.44a14.89,14.89 0 0 0 -1,-3.2l-0.29,-0.75a6.17,6.17 0 0 0 -1,-1.64c-0.85,-1 -1.57,-1.47 -2.21,-1.47s-1.43,0.64 -2.17,1.94c-1.42,2.53 -1.79,5.35 -2.06,8.26a199.23,199.23 0 0 0 -0.32,24.29l0,1.48c0.09,3.42 0.15,6.84 0.21,10.25l0.06,4c0,0.54 0,1.07 0,1.65l0,0.65c2.14,-0.09 4.26,-0.26 6.31,-0.43c2.74,-0.23 5.57,-0.47 8.4,-0.47l0.68,0l0,10.37l-15.25,1.26c0,0.2 0,0.39 0,0.57c0,0.48 -0.08,0.9 -0.08,1.31c0.05,3.72 0.09,7.43 0.14,11.14q0.09,6.9 0.17,13.8c0,1 0,2.07 -0.07,3.16c0,0.51 0,1 0,1.54l0,0.25l-10.49,0.09z" id="svg_12" transform="translate(-8.04 -25.29)"/>
  <path class="cls-3" d="m116.27,104.89a11.75,11.75 0 0 1 4.82,1.1a15.44,15.44 0 0 1 7.81,7.59a38.12,38.12 0 0 1 3.1,10.64c1.13,7.08 1,14.21 0.94,21.33a15.4,15.4 0 0 1 -0.26,1.94c-3.09,0.65 -6.21,0.21 -9.53,0.69c-0.1,-1 -0.22,-1.74 -0.24,-2.52c-0.08,-3.93 0,-7.88 -0.25,-11.79s-0.8,-7.66 -1.38,-11.47a18.94,18.94 0 0 0 -1.32,-4a6,6 0 0 0 -1,-1.71c-0.89,-1 -1.67,-1.56 -2.4,-1.56s-1.61,0.69 -2.39,2.07c-1.46,2.59 -1.82,5.48 -2.09,8.36c-0.82,8.59 -0.51,17.2 -0.28,25.8c0.13,4.75 0.19,9.5 0.27,14.25c0,0.8 0,1.6 0,2.54c5.11,-0.17 10,-0.9 15,-0.9l0.43,0l0,9.9l-15.23,1.25c-0.06,0.84 -0.16,1.48 -0.15,2.13c0.1,8.31 0.22,16.62 0.31,24.93c0,1.53 -0.08,3.06 -0.12,4.7l-9.81,0c-0.07,-0.84 -0.18,-1.62 -0.19,-2.41c-0.1,-9.58 -0.15,-19.15 -0.27,-28.72c-0.15,-11.88 -0.46,-23.75 -0.48,-35.62c0,-6.75 0.29,-13.5 0.64,-20.23a25.76,25.76 0 0 1 2.59,-9.85a15.85,15.85 0 0 1 5.35,-6.43a11,11 0 0 1 6.18,-2m0,-0.5a11.49,11.49 0 0 0 -6.46,2.1a16.23,16.23 0 0 0 -5.51,6.63a25.87,25.87 0 0 0 -2.64,10c-0.4,7.51 -0.67,13.83 -0.65,20.26c0,7.6 0.15,15.33 0.28,22.8q0.1,6.4 0.2,12.82c0.07,5.76 0.12,11.61 0.17,17.27c0,3.82 0.06,7.63 0.1,11.45c0,0.56 0.06,1.09 0.12,1.66c0,0.26 0.05,0.52 0.07,0.79l0,0.46l10.75,0l0,-0.49c0,-0.52 0,-1 0,-1.54c0,-1.09 0.08,-2.12 0.07,-3.17c0,-4.65 -0.11,-9.28 -0.17,-13.92q-0.08,-5.52 -0.14,-11c0,-0.4 0,-0.81 0.08,-1.28l0,-0.37l11,-0.91l3.83,-0.32l0.46,0l0,-10.88l-0.88,0c-2.84,0 -5.68,0.24 -8.43,0.47c-2,0.16 -4,0.33 -6,0.42l0,-0.38c0,-0.58 0,-1.12 0,-1.66l-0.06,-4c-0.06,-3.37 -0.11,-6.86 -0.21,-10.28l0,-1.48a200.7,200.7 0 0 1 0.31,-24.26c0.28,-2.89 0.64,-5.68 2,-8.16c0.69,-1.22 1.32,-1.82 2,-1.82s1.23,0.47 2,1.39a5.71,5.71 0 0 1 0.93,1.56c0.09,0.25 0.19,0.5 0.29,0.75a14.31,14.31 0 0 1 1,3.14c0.55,3.66 1.11,7.56 1.37,11.43c0.18,2.59 0.19,5.25 0.21,7.82c0,1.32 0,2.64 0,3.95c0,0.54 0.08,1.08 0.14,1.66c0,0.28 0.07,0.58 0.1,0.9l0,0.52l0.52,-0.07a34.66,34.66 0 0 1 4.38,-0.27a26.77,26.77 0 0 0 5.18,-0.43l0.34,-0.07l0,-0.35q0.06,-0.39 0.12,-0.72a7.41,7.41 0 0 0 0.15,-1.29l0,-2.12c0,-6.33 0.07,-12.88 -0.95,-19.28a38.48,38.48 0 0 0 -3.15,-10.78a16,16 0 0 0 -8.06,-7.83a12.24,12.24 0 0 0 -5,-1.15l0.14,0.03z" id="svg_13" transform="translate(-8.04 -25.29)"/>
  <path class="cls-2" d="m175.34,210.82a2.81,2.81 0 0 1 -0.5,-0.07l-0.45,-0.08l-0.19,0l0,-0.2c0,-0.32 0,-0.66 -0.07,-1c-0.06,-0.72 -0.12,-1.46 -0.11,-2.2q0.18,-20.87 0.39,-41.74l0.17,-18.39q0.16,-16.69 0.35,-33.37a24.26,24.26 0 0 1 0.37,-3.32c0.09,-0.59 0.19,-1.18 0.26,-1.77a2.07,2.07 0 0 1 2.29,-2c1.51,0 3,-0.11 4.51,-0.18c1.32,-0.06 2.63,-0.12 3.94,-0.16c3.86,-0.11 7.72,-0.19 11.58,-0.27l0,0a9.72,9.72 0 0 1 1.23,0.1l0.69,0.08l0.22,0l0.42,9.75l-0.21,0a30.74,30.74 0 0 1 -6,0.42l-1.47,0l-2.76,0l-4.38,0c0,0.24 0,0.48 -0.06,0.7c-0.06,0.58 -0.11,1.09 -0.12,1.6l-0.09,11.75q-0.06,7.94 -0.13,15.85c0,4.17 -0.11,8.34 -0.18,12.51c0,2.14 -0.07,4.28 -0.1,6.41c0,0.54 0,1.07 0,1.68l0,0.73l13.23,-0.52l0.88,10.11l-14.09,0.86l0,22c0.61,0 1.25,0.07 2,0.07c1.44,0 2.91,-0.1 4.33,-0.19s2.89,-0.19 4.35,-0.19c0.82,0 1.57,0 2.29,0.09l0.23,0l0,2.44c0,2.3 0,4.48 -0.06,6.66c0,0.49 -0.64,0.93 -1.24,1.3a1.27,1.27 0 0 1 -0.66,0.14l-0.52,0l-20.29,0.4l-0.05,0z" id="svg_14" transform="translate(-8.04 -25.29)"/>
  <path class="cls-3" d="m197.94,106.26c0.55,0 1.11,0.11 1.83,0.18c0.13,3.1 0.26,6.11 0.4,9.32a40.7,40.7 0 0 1 -7.4,0.42l-2.75,0l-4.61,0c-0.08,1 -0.19,1.77 -0.2,2.54c-0.08,9.21 -0.13,18.41 -0.22,27.61c-0.07,6.31 -0.19,12.61 -0.28,18.92c0,0.8 0,1.6 0,2.67l13.26,-0.52c0.28,3.3 0.54,6.29 0.83,9.61l-14.07,0.86l0,22.44c0.73,0.06 1.47,0.09 2.2,0.09c2.9,0 5.78,-0.38 8.68,-0.38c0.75,0 1.51,0 2.27,0.09c0,3.12 0,6 -0.06,8.86c0,0.39 -0.67,0.82 -1.12,1.1a1.12,1.12 0 0 1 -0.53,0.1l-0.57,0l-20.24,0.4l0,0c-0.21,0 -0.43,-0.07 -0.91,-0.14c-0.06,-1 -0.19,-2.11 -0.18,-3.18q0.23,-25.16 0.47,-50.31c0.14,-14.4 0.26,-28.8 0.44,-43.19a48.55,48.55 0 0 1 0.63,-5.06a1.83,1.83 0 0 1 2.05,-1.82c2.82,-0.07 5.63,-0.25 8.45,-0.34c3.85,-0.11 7.71,-0.19 11.57,-0.26l0.08,0m0,-0.5l-0.09,0c-4.67,0.08 -8.24,0.17 -11.58,0.26c-1.32,0 -2.64,0.1 -4,0.16c-1.47,0.07 -3,0.14 -4.48,0.18a2.34,2.34 0 0 0 -2.54,2.27c-0.07,0.58 -0.16,1.17 -0.26,1.74a25,25 0 0 0 -0.37,3.36c-0.14,11.15 -0.25,22.48 -0.35,33.44l-0.09,9.75l-0.08,8.08q-0.19,21.12 -0.39,42.23c0,0.76 0.05,1.51 0.11,2.23c0,0.33 0,0.66 0.07,1l0,0.4l0.4,0.06l0.44,0.08a2.76,2.76 0 0 0 0.54,0.07l20.27,-0.4l0.56,0a1.45,1.45 0 0 0 0.78,-0.18c0.7,-0.42 1.35,-0.89 1.37,-1.5c0.07,-2.19 0.07,-4.37 0.06,-6.67l0,-2.67l-0.46,0c-0.73,-0.06 -1.48,-0.09 -2.31,-0.09c-1.46,0 -2.94,0.1 -4.37,0.19s-2.88,0.19 -4.31,0.19c-0.6,0 -1.16,0 -1.7,0l0,-21.6l9.06,-0.55l4.54,-0.28l0.51,0l-0.05,-0.51l-0.29,-3.44l-0.54,-6.18l0,-0.47l-0.47,0l-12.74,0.5l0,-0.47c0,-0.61 0,-1.14 0,-1.67c0,-2.15 0.07,-4.29 0.1,-6.43c0.07,-4.1 0.14,-8.33 0.18,-12.49q0.07,-7.93 0.13,-15.85l0.09,-11.76c0,-0.5 0.06,-1 0.11,-1.57c0,-0.16 0,-0.32 0.05,-0.48l4.14,0l2.76,0l1.47,0a31.24,31.24 0 0 0 6,-0.42l0.42,-0.09l0,-0.42l-0.19,-4.49l-0.21,-4.84l0,-0.43l-0.43,0l-0.69,-0.08a9.88,9.88 0 0 0 -1.19,-0.1l0.02,-0.06z" id="svg_15" transform="translate(-8.04 -25.29)"/>
  <path class="cls-2" d="m205.48,210.82a2.46,2.46 0 0 1 -0.52,-0.09l-0.47,-0.11l-0.19,0l0,-0.19c0,-0.34 0,-0.67 0,-1c0,-0.68 -0.08,-1.33 -0.08,-2q0.34,-39 0.7,-77.92c0.06,-6 0.15,-11.41 0.29,-16.7a22,22 0 0 1 0.56,-4c0.43,-2 0.6,-2.09 2.6,-2.18c5.52,-0.24 11.1,-0.39 16,-0.53c0.68,0 1.36,0 2,0l3.91,0l0,10.09l-0.23,0c-2.71,0.23 -5.49,0.25 -8.19,0.28c-1.91,0 -3.89,0 -5.83,0.12c-0.48,3.39 -1.06,46.2 -0.68,50.89l0.24,0a4.7,4.7 0 0 0 0.84,0.1c1.39,-0.05 2.69,-0.12 4,-0.18c1.51,-0.08 3,-0.16 4.54,-0.22l0.42,0c0.55,0 1.11,0 1.7,0.07l1.09,0.06l0.22,0l0.81,9.92l-14.05,0.84l-0.39,21.95c0.74,0.06 1.51,0.09 2.35,0.09c1.46,0 2.91,-0.09 4.32,-0.18s2.8,-0.19 4.19,-0.19a24.16,24.16 0 0 1 2.49,0.12l0.22,0l0,2.68c0,2.14 0,4.18 0,6.21a1.47,1.47 0 0 1 -1.47,1.55l-0.12,0c-0.26,0 -0.52,0 -0.78,0l-20.47,0.41l-0.02,0.11z" id="svg_16" transform="translate(-8.04 -25.29)"/>
  <path class="cls-3" d="m226.38,106.31l3.66,0l0,9.61c-4.68,0.38 -9.48,0.17 -14.2,0.4c-0.5,1.64 -1.12,47.82 -0.72,51.35a9.33,9.33 0 0 0 1.32,0.17l0.1,0c2.81,-0.11 5.63,-0.29 8.45,-0.4l0.41,0c0.88,0 1.77,0.08 2.78,0.13c0.26,3.21 0.51,6.2 0.77,9.45l-14,0.83c-0.13,7.49 -0.26,14.91 -0.39,22.42c0.87,0.08 1.74,0.11 2.6,0.11c2.91,0 5.72,-0.37 8.51,-0.37a22.51,22.51 0 0 1 2.46,0.12c0,3 0,5.86 0,8.66a1.21,1.21 0 0 1 -1.24,1.3c-0.29,0 -0.59,0 -0.88,0l-20.47,0.41l0,0a7.88,7.88 0 0 1 -1,-0.19c0,-1 -0.13,-2 -0.13,-3q0.34,-39 0.7,-77.92q0.09,-8.35 0.29,-16.7a20.44,20.44 0 0 1 0.56,-4c0.39,-1.8 0.44,-1.89 2.36,-2c5.33,-0.23 10.67,-0.38 16,-0.53c0.68,0 1.36,0 2,0m0,-0.5c-0.69,0 -1.38,0 -2.06,0c-4.93,0.14 -10.53,0.3 -16,0.54c-2.11,0.09 -2.37,0.31 -2.82,2.37a21.46,21.46 0 0 0 -0.57,4c-0.14,5.28 -0.23,10.75 -0.29,16.7q-0.36,39 -0.7,77.93c0,0.66 0,1.31 0.08,2c0,0.32 0,0.64 0,1l0,0.39l0.38,0.08l0.46,0.1a2.28,2.28 0 0 0 0.59,0.1l20.49,-0.41c0.27,0 0.54,0 0.81,0l0.1,0a1.7,1.7 0 0 0 1.7,-1.8c0,-2 0,-4.05 0,-6.18l0,-2.94l-0.45,0a24.42,24.42 0 0 0 -2.51,-0.12c-1.4,0 -2.83,0.1 -4.21,0.19s-2.85,0.18 -4.3,0.18c-0.74,0 -1.43,0 -2.1,-0.07l0,-1l0.36,-20.46l13.57,-0.8l0.51,0l0,-0.51l-0.48,-5.88l-0.29,-3.57l0,-0.44l-0.44,0l-1.08,-0.06c-0.6,0 -1.16,-0.07 -1.72,-0.07l-0.35,0c-1.52,0.06 -3,0.14 -4.56,0.22l-3.89,0.18l-0.08,0a4.46,4.46 0 0 1 -0.8,-0.09l0,0c-0.32,-5.36 0.23,-46 0.68,-50.44c1.86,-0.08 3.76,-0.1 5.6,-0.11c2.7,0 5.5,0 8.21,-0.28l0.46,0l0,-10.58l-4.16,0l-0.14,-0.17z" id="svg_17" transform="translate(-8.04 -25.29)"/>
  <path class="cls-2" d="m67.44,187.18a26.2,26.2 0 0 1 0.17,-52.39l0.16,0a26.18,26.18 0 0 1 18.57,7.85a25.73,25.73 0 0 1 7.51,18.41a26,26 0 0 1 -26.15,26.13l-0.26,0zm0.11,-41.74a15.6,15.6 0 1 0 0.08,0l0,-0.25l-0.08,0.25z" id="svg_18" transform="translate(-8.04 -25.29)"/>
  <path class="cls-3" d="m67.61,135l0.15,0a25.95,25.95 0 0 1 -0.06,51.89l-0.26,0a25.95,25.95 0 0 1 0.17,-51.89m0,41.74a15.8,15.8 0 1 0 0,-31.59l-0.09,0a15.8,15.8 0 0 0 0.12,31.59m0,-42.24l0,0a26.45,26.45 0 0 0 -0.18,52.89l0.27,0a26.45,26.45 0 0 0 0.07,-52.89l-0.16,0zm0,41.74a15.3,15.3 0 0 1 -0.11,-30.59l0.08,0a15.33,15.33 0 0 1 10.86,26.13a15.16,15.16 0 0 1 -10.83,4.46z" id="svg_19" transform="translate(-8.04 -25.29)"/>
  <path class="cls-2" d="m70.71,203.39c-9.47,0 -19.53,-0.19 -20.69,-0.6l-0.16,-0.06l0,-9.73l0.24,0l9,-0.14c8.79,-0.15 17.88,-0.29 26.91,-0.29l5.54,0l0,0.25c0.09,3.07 0.08,6.09 0,9.79l0,0.21l-0.2,0c-2.35,0.42 -12.59,0.57 -20.64,0.57z" id="svg_20" transform="translate(-8.04 -25.29)"/>
  <path class="cls-3" d="m86,192.79l5.3,0c0.1,3.4 0.06,6.55 0,9.79c-2.14,0.37 -11.39,0.55 -20.59,0.55c-9.8,0 -19.54,-0.2 -20.6,-0.59l0,-9.33c12,-0.17 23.88,-0.43 35.93,-0.43m0,-0.5c-9,0 -18.1,0.14 -26.89,0.29l-9,0.14l-0.49,0l0,10.19l0.33,0.12c1.35,0.49 13.69,0.62 20.77,0.62c8.06,0 18.31,-0.15 20.68,-0.56l0.4,-0.07l0,-0.41c0.12,-3.71 0.13,-6.74 0,-9.81l0,-0.48l-5.84,0l0.04,-0.03z" id="svg_21" transform="translate(-8.04 -25.29)"/>
  <path class="cls-2" d="m38,87.17a2.56,2.56 0 0 1 -1.07,-2.77a8.18,8.18 0 0 1 3.13,-5.46a20.06,20.06 0 0 1 8.35,-4a73.18,73.18 0 0 1 9.22,-1.36c6.94,-0.56 13.92,-0.9 20.69,-2.7a95.59,95.59 0 0 0 9.68,-3.36a8.22,8.22 0 0 0 5.22,-4.84c0.06,-0.17 0.29,-0.27 0.82,-0.31a13.83,13.83 0 0 1 -0.48,2.16a10.39,10.39 0 0 1 -5.24,5.52a51.94,51.94 0 0 1 -13,4.46a4.36,4.36 0 0 1 -0.87,0.13c-3.27,0.09 -4.91,2.28 -6.58,5.1l2.57,-0.54c1.68,-0.33 2.16,0 2.83,2.2c-1.31,0.4 -2.63,0.78 -3.94,1.19c-4.75,1.5 -3.41,0.23 -5.67,4.76c-0.76,1.52 -1.39,3.1 -2.05,4.59a3.46,3.46 0 0 0 0.44,0.69c2.64,2.33 3.12,5.36 2.39,8.55a26.2,26.2 0 0 1 -6.33,11.82a4.07,4.07 0 0 1 -2,1.22a2.43,2.43 0 0 1 -2.79,-2.67a36.89,36.89 0 0 1 1.11,-6.78c1,-3.49 2.18,-6.92 3.29,-10.37c0.18,-0.55 0.34,-1.1 0.52,-1.7c-2,-1.11 -4.06,-1.28 -6.08,-1.62c-1.39,-0.23 -2.8,-0.29 -4.2,-0.49a4.37,4.37 0 0 1 -1.96,-0.5a3.29,3.29 0 0 1 -1.26,-1.69c-0.22,-0.88 0.66,-1.22 1.33,-1.53a28.42,28.42 0 0 1 3.08,-1.26c4.5,-1.49 9,-3 13.54,-4.37a3.71,3.71 0 0 0 2.31,-1.59c0.73,-1.18 1.59,-2.29 2.36,-3.38c-0.17,-0.19 -0.26,-0.38 -0.34,-0.37c-6.28,0.42 -12.64,0.06 -18.76,1.83a28,28 0 0 0 -6.26,2.82a6.82,6.82 0 0 0 -3.63,5.56a5.62,5.62 0 0 1 -0.37,1.06zm18.76,22.12c2.61,-3.58 4.51,-7.45 4.74,-12a3.16,3.16 0 0 0 -0.75,-2.64c-1.6,2.93 -4,11.35 -3.98,14.64l-0.01,0zm5.14,-24.43l-10.37,3.36l7.76,2.18c0.79,-1.69 1.6,-3.4 2.61,-5.54z" id="svg_22" transform="translate(-8.04 -25.29)"/>
  <path class="cls-2" d="m98.86,92.88c5.85,-3.77 7.36,-6.65 6.15,-11.44l-1.21,1.64c-2.13,2.94 -4.17,6 -6.43,8.8a16.88,16.88 0 0 1 -4,3.54c-3.26,2.14 -5.61,1.17 -6.67,-2.56a6.41,6.41 0 0 0 -0.29,-0.67c-0.94,1.59 -1.78,3 -2.66,4.48a22.8,22.8 0 0 1 -1.6,2.33a1.89,1.89 0 0 1 -2.33,0.8a2.12,2.12 0 0 1 -1.36,-2.32c0.1,-1.19 0.3,-2.36 0.49,-3.53s0.48,-2.18 0.61,-3.28c0.21,-1.79 0.11,-1.88 -1.89,-2.57c-0.94,2.25 -1.76,4.55 -2.84,6.73c-1.18,2.39 -2.57,4.67 -3.92,7a5.52,5.52 0 0 1 -1.34,1.47a1.52,1.52 0 0 1 -2,-0.18a1.14,1.14 0 0 1 -0.16,-1.6c0.69,-1.23 1.4,-2.45 2,-3.7c1.79,-3.41 3.59,-6.82 5.3,-10.27a3.4,3.4 0 0 0 0.23,-2.78c-0.44,-1.35 0,-2.16 0.86,-2.34s2.52,0.72 2.39,1.78c-0.23,1.88 0.83,2.62 2.15,3.42c1.63,1 1.81,2.61 1.56,4.32a8.16,8.16 0 0 0 -0.16,2.64a7.12,7.12 0 0 0 0.64,-0.81c2.48,-4.13 5,-8.26 7.42,-12.42a12.66,12.66 0 0 1 4.4,-4.92c1.65,-1 3.37,-0.35 3.73,1.28a3.74,3.74 0 0 1 0,1.76a16.46,16.46 0 0 1 -6.51,9.52c-2.21,1.54 -2.48,2.09 -1.66,5.13a16.73,16.73 0 0 0 2.24,-1.35a58.76,58.76 0 0 0 12.52,-15.78a13.19,13.19 0 0 0 0.65,-2.34c0.24,-0.69 0.51,-1.46 1.47,-1.4c0.77,0.06 1.72,1.17 1.45,2c-1.07,3 -0.18,6 -0.07,9a10.33,10.33 0 0 1 -3.38,8.6a5.31,5.31 0 0 1 -3.73,1.14c-0.59,0 -1.17,-0.62 -2.05,-1.12zm-3.58,-13.78a10.3,10.3 0 0 0 -3.49,5.42a10,10 0 0 0 3.49,-5.42z" id="svg_23" transform="translate(-8.04 -25.29)"/>
  <path class="cls-2" d="m114.5,76.71c1.52,-2 2.84,-3.76 4.23,-5.48c0.66,-0.82 1.42,-1.57 2.66,-1a2.43,2.43 0 0 1 1.46,2.77c-0.26,1.83 -0.58,3.66 -1,5.47c-0.79,3.83 -1.87,7.62 -1.7,11.58c-1.74,0.08 -2.37,-0.25 -2.57,-1.7a12.74,12.74 0 0 1 0,-3.75c0.42,-2.79 1,-5.55 1.52,-8.32a7.21,7.21 0 0 0 0.17,-2c-3.92,4.55 -6,10 -7.36,15.71c-1.64,-0.15 -1.82,-1 -1.68,-2.08c0.32,-2.42 0.56,-4.87 1,-7.27c1,-5.46 2.09,-10.92 3.25,-16.35a11.86,11.86 0 0 1 1.52,-3.44a1.93,1.93 0 0 1 1.6,-0.85c0.94,0.24 0.66,1.1 0.47,1.86c-1.18,4.66 -2.34,9.34 -3.5,14a6.56,6.56 0 0 0 -0.07,0.85z" id="svg_24" transform="translate(-8.04 -25.29)"/>
  <path class="cls-2" d="m67,119c-1,-0.64 -1,-1.41 -0.46,-2.15a18.92,18.92 0 0 1 2.1,-2.28a48.36,48.36 0 0 1 11,-7.15a92,92 0 0 1 22.71,-8.17a84.65,84.65 0 0 1 16.34,-1.73c0.68,0 1.79,-0.32 1.86,0.63c0.08,1.21 -1.13,0.85 -1.84,0.9a91.75,91.75 0 0 0 -20.41,4.2a96.05,96.05 0 0 0 -24.09,10.75c-2.43,1.49 -4.72,3.24 -7.21,5z" id="svg_25" transform="translate(-8.04 -25.29)"/>
  <path class="cls-4" d="m195.18,37.04c1.43,-0.78 2.31,-1.31 3.23,-1.75a15,15 0 0 1 2.48,-1a5.68,5.68 0 0 1 7.45,4.42a10.36,10.36 0 0 1 -0.13,5.71c-2.16,6.77 -7,10.41 -13.77,11.82a14.69,14.69 0 0 1 -2.68,0l-0.55,1.11c2.81,0.86 5.57,1.52 8.16,2.56a20.19,20.19 0 0 1 5.32,3.13c2.28,1.89 2.2,4.28 -0.28,5.94a24.13,24.13 0 0 1 -6.2,2.87a77.2,77.2 0 0 1 -17.09,2.86a142.8,142.8 0 0 1 -20.89,0c-7.63,-0.58 -15.21,-1.51 -22.47,-4a35.47,35.47 0 0 1 -5.23,-2.44a7.9,7.9 0 0 1 -2.16,-1.88c-1.3,-1.54 -1.35,-3.23 0.11,-4.59a15.18,15.18 0 0 1 4.23,-2.75a63.79,63.79 0 0 1 6.41,-2c-0.41,-0.6 -0.83,-1.15 -1.18,-1.74c-1.75,-2.92 -3.7,-5.75 -5.15,-8.81a34.2,34.2 0 0 1 -2.14,-7.2a7.33,7.33 0 0 1 1.65,-6.24a15.44,15.44 0 0 1 8.88,-5.54a61.57,61.57 0 0 1 16.12,-1.6a154.56,154.56 0 0 1 23,2a31.18,31.18 0 0 1 9.9,3.18c2.25,1.1 4.11,2.5 2.98,5.94zm-0.74,0.45a7.27,7.27 0 0 0 -0.93,0.43a34.61,34.61 0 0 1 -11.45,4.72a91.83,91.83 0 0 1 -28.28,2.07a42.61,42.61 0 0 1 -13.82,-3.07a13.63,13.63 0 0 1 -5.12,-3.44c-0.25,-0.29 -0.57,-0.52 -1.23,-1.13a15.6,15.6 0 0 0 0.23,2.88a39.11,39.11 0 0 0 2.12,6.06a43.65,43.65 0 0 0 7.89,11a34.76,34.76 0 0 0 14.94,9.24c6.36,2 12.6,1.83 18.51,-1.5a81.17,81.17 0 0 0 6.91,-4.45a21.28,21.28 0 0 0 7.25,-9.65c1.68,-4.2 2.29,-8.58 2.98,-13.16zm-22.8,36.06a122.52,122.52 0 0 0 21.12,-1.75c3.64,-0.68 7.26,-1.59 10.39,-3.75c2.31,-1.59 2.35,-3.38 0,-4.92a29.94,29.94 0 0 0 -11.4,-4.14a2.33,2.33 0 0 0 -2.47,1a24,24 0 0 1 -11.44,7.72a33.73,33.73 0 0 1 -12.95,1.58a29.93,29.93 0 0 1 -17.5,-6.28a46.31,46.31 0 0 1 -4.23,-3.94a1.81,1.81 0 0 0 -2.15,-0.62c-2.43,0.88 -4.88,1.7 -7.31,2.59a5.16,5.16 0 0 0 -1.32,0.81c-2,1.48 -2,3 0,4.47a15.2,15.2 0 0 0 3.48,1.93a50,50 0 0 0 5.7,1.87c9.8,2.59 19.86,3.14 30.08,3.43zm18.57,-36a4.4,4.4 0 0 0 -3.52,-2.91a53.62,53.62 0 0 0 -8.45,-1.79a101.66,101.66 0 0 0 -28.35,0.84a36.63,36.63 0 0 0 -9.8,2.73c-1,0.5 -2.17,1 -2.52,2.24c9.25,5.86 39.49,5.67 52.64,-1.1l0,-0.01zm1.6,-0.68a13.67,13.67 0 0 0 1.4,-0.81c1.05,-0.76 1.17,-1.39 0.34,-2.38a5.16,5.16 0 0 0 -1.52,-1.27a33.3,33.3 0 0 0 -4,-1.89c-4.58,-1.73 -9.42,-2.07 -14.23,-2.13c-6.59,-0.09 -13.19,0.14 -19.77,0.46a46.11,46.11 0 0 0 -12.45,2.23a14.51,14.51 0 0 0 -5.62,3.1c-1.55,1.46 -1.5,2 0.29,3.45a21.8,21.8 0 0 1 9.52,-4.51a89.82,89.82 0 0 1 22.28,-2.27a63.16,63.16 0 0 1 16.11,1.86c2.85,0.76 5.8,1.51 7.65,4.17l0,-0.01zm10.39,1.18c-2.82,-0.1 -4.9,1.52 -7,3.14c-0.19,0.15 -0.23,0.53 -0.28,0.81c-0.52,2.89 -1,5.78 -1.52,8.69c4.32,-0.61 9.87,-8.47 8.8,-12.63l0,-0.01zm-9.67,16.36a4,4 0 0 0 0.8,0c6.08,-1.57 10,-5.48 12.34,-11.21a6.83,6.83 0 0 0 0.06,-5a3.15,3.15 0 0 0 -3.15,-2.36a9.54,9.54 0 0 0 -7,3.5a9.94,9.94 0 0 0 1.49,-0.76a22.38,22.38 0 0 1 3.68,-1.5c1.89,-0.46 3.18,0.48 3.51,2.41a4.73,4.73 0 0 1 0,1.76a13.47,13.47 0 0 1 -5.07,8.37a10.58,10.58 0 0 1 -6.19,2.52c-0.2,0.66 -0.36,1.15 -0.49,1.65a3.22,3.22 0 0 0 0.02,0.63l0,-0.01z" fill="#ffffff" id="svg_26"/>
  <path class="cls-4" d="m180.96,22.56c-0.16,-0.49 -0.29,-0.8 -0.36,-1.12c-0.48,-2.53 -0.87,-5.09 -1.46,-7.59c-0.67,-2.84 -1.12,-5.66 -0.3,-8.53a8.48,8.48 0 0 1 2.8,-4.43c0.8,-0.63 1.67,-1.23 2.86,-0.66c-0.05,0.25 0,0.51 -0.15,0.63c-3.26,3.55 -3.55,7.79 -3,12.27c0.29,2.26 0.55,4.54 0.73,6.81a2.58,2.58 0 0 1 -1.12,2.62z" fill="#ffffff" id="svg_27"/>
  <path class="cls-4" d="m155.56,21.98c-0.35,-0.13 -0.47,-0.14 -0.47,-0.18c-0.73,-4 -1.48,-8 -2.14,-12a10.7,10.7 0 0 1 1.4,-7.28c0.43,-0.73 0.88,-1.57 2.19,-1.2a8.05,8.05 0 0 1 -0.35,1.26a13.64,13.64 0 0 0 -0.86,9.75a18.33,18.33 0 0 1 0.58,8.58c-0.08,0.34 -0.22,0.67 -0.35,1.07z" fill="#ffffff" id="svg_28" transform="matrix(1 0 0 1 0 0)"/>
  <path class="cls-4" d="m167.61,4.71a20.42,20.42 0 0 1 -0.56,2a5.91,5.91 0 0 0 -0.08,4.32c0.57,1.67 1.13,3.36 1.57,5.07a5.84,5.84 0 0 1 -1,5.34c-0.14,-0.34 -0.35,-0.58 -0.32,-0.79c0.43,-3 -0.74,-5.66 -2,-8.25a6.3,6.3 0 0 1 -0.43,-5.75c0.46,-0.94 0.93,-2.03 2.82,-1.94z" fill="#ffffff" id="svg_29" transform="matrix(1 0 0 1 0 0)"/>
  <path class="cls-4" d="m145.33,22.33c-0.84,-2.11 -1.69,-4.22 -2.52,-6.34c-0.5,-1.29 -0.7,-2.54 0.55,-3.54c0.23,0.11 0.44,0.15 0.47,0.24c0.66,2.56 1.34,5.11 1.93,7.69a8.27,8.27 0 0 1 -0.07,2l-0.36,-0.05z" fill="#ffffff" id="svg_30"/>
  <path class="cls-4" d="m181.29,89.05c5.74,-3.53 11.2,-7.36 14.61,-13.51l0.62,0.24c0.15,0.49 0.53,1 0.41,1.45a8.92,8.92 0 0 1 -1.19,2.84a21.42,21.42 0 0 1 -14.45,8.98z" id="svg_31" transform="translate(-8.04 -25.29)"/>
  <path class="cls-4" d="m197.08,73.7c0.09,-1 0.14,-2 0.32,-2.93c0,-0.24 0.64,-0.61 0.82,-0.53c0.33,0.15 0.76,0.56 0.77,0.88a2.67,2.67 0 0 1 -1.91,2.58z" id="svg_32" transform="translate(-8.04 -25.29)"/>
  <path class="cls-4" d="m183.84,70.23c1.91,-0.47 3.8,-1 5.73,-1.38c3.51,-0.65 7,-1.29 9.63,-4c0,-0.06 0.26,0 0.58,0.1a3.65,3.65 0 0 1 -2.35,2.9a29.2,29.2 0 0 1 -5.42,1.86c-2.64,0.57 -5.35,0.84 -8,1.24c-0.05,-0.24 -0.12,-0.48 -0.17,-0.72z" id="svg_33"/>
  <path class="cls-4" d="m142.23,90.13a7.37,7.37 0 0 1 0.77,-2.13a5.4,5.4 0 0 1 4.27,-2c0.42,0 0.84,0.44 1.26,0.68c-0.26,0.38 -0.44,1 -0.81,1.13c-1.62,0.75 -3.32,1.41 -5.49,2.32z" id="svg_34" transform="translate(-8.04 -25.29)"/>
  <path class="cls-4" d="m160.32,61.23l-1.76,2.13a3.76,3.76 0 0 0 2.94,0.18c2.75,-0.61 5.49,-1.26 8.25,-1.78c2.18,-0.42 2.39,-0.23 3.46,2.14c1.19,-0.44 2.44,-0.83 3.64,-1.33a20,20 0 0 1 8.36,-2l0.44,0c2.52,0 3.74,0.57 3,3.93l-1.47,-2.5a21.43,21.43 0 0 0 -3.28,0.29c-2.67,0.63 -5.3,1.4 -8,2.12c-0.29,0.07 -0.56,0.18 -0.85,0.25c-2.54,0.6 -3,0.36 -4.13,-2.22l-4.44,1.09c-1.87,0.45 -3.74,0.93 -5.61,1.37a4.89,4.89 0 0 1 -1.32,0.13c-1.41,-0.07 -2.15,-0.69 -2.13,-1.76c0.07,-1.27 1.17,-2.13 2.9,-2.04z" id="svg_35" transform="translate(-8.04 -25.29)"/>
  <path class="cls-4" d="m189.21,37.56a4.4,4.4 0 0 0 -3.52,-2.91a53.62,53.62 0 0 0 -8.45,-1.79a101.66,101.66 0 0 0 -28.35,0.84a36.63,36.63 0 0 0 -9.8,2.73c-1,0.5 -2.17,1 -2.52,2.24c9.25,5.85 39.49,5.66 52.64,-1.11z" fill="#000000" id="svg_36"/>
 </g>
</svg>